<?xml version="1.0" encoding="utf-8"?>
<!-- Generator: Adobe Illustrator 22.1.0, SVG Export Plug-In . SVG Version: 6.00 Build 0)  -->
<svg version="1.1" xmlns="http://www.w3.org/2000/svg" xmlns:xlink="http://www.w3.org/1999/xlink" x="0px" y="0px"
	 viewBox="0 0 40 30" style="enable-background:new 0 0 40 30;" xml:space="preserve">
<style type="text/css">
	.st0{fill:#FFFFFF;}
</style>
<g id="Layer_1">
</g>
<g id="icons">
	<g>
		<path class="st0" d="M24.5,0c-0.6,0-1.2,0.5-1.2,1.2l0,3.1c0,0.6,0.5,1.2,1.2,1.2c0.6,0,1.2-0.5,1.2-1.2l0-3.1
			C25.6,0.5,25.1,0,24.5,0z"/>
		<path class="st0" d="M24.6,30c0.6,0,1.2-0.5,1.2-1.2l0-3.1c0-0.6-0.5-1.2-1.2-1.2c-0.6,0-1.2,0.5-1.2,1.2l0,3.1
			C23.4,29.5,23.9,30,24.6,30z"/>
		<path class="st0" d="M39.5,14.9c0-0.6-0.5-1.2-1.2-1.2l-3.1,0c-0.6,0-1.2,0.5-1.2,1.2c0,0.6,0.5,1.2,1.2,1.2l3.1,0
			C39,16.1,39.5,15.6,39.5,14.9z"/>
		<path class="st0" d="M35.2,25.6c0.5-0.5,0.4-1.2,0-1.6L33,21.7c-0.5-0.5-1.2-0.5-1.6,0c-0.5,0.5-0.5,1.2,0,1.6l2.2,2.2
			C34,26,34.7,26,35.2,25.6z"/>
		<path class="st0" d="M35.1,4.4c-0.5-0.5-1.2-0.5-1.6,0l-2.2,2.2c-0.5,0.5-0.4,1.2,0,1.6c0.5,0.5,1.2,0.4,1.6,0L35.1,6
			C35.6,5.5,35.6,4.8,35.1,4.4z"/>
	</g>
	<path class="st0" d="M24.4,22c3.9,0,7-3.1,7-7c0-3.9-3.1-7-7-7c-0.5,0-1.1,0.1-1.6,0.2c-1-3.2-4-5.6-7.5-5.6
		c-4.3,0-7.8,3.5-7.8,7.8c0,0.2,0,0.3,0,0.5c-0.5-0.1-1-0.2-1.5-0.2c-3.1,0-5.6,2.5-5.6,5.6C0.5,19.5,3,22,6.1,22H24.4z"/>
</g>
</svg>
