<?xml version="1.0" encoding="utf-8"?>
<!-- Generator: Adobe Illustrator 22.1.0, SVG Export Plug-In . SVG Version: 6.00 Build 0)  -->
<svg version="1.1" xmlns="http://www.w3.org/2000/svg" xmlns:xlink="http://www.w3.org/1999/xlink" x="0px" y="0px"
	 viewBox="0 0 40 30" style="enable-background:new 0 0 40 30;" xml:space="preserve">
<style type="text/css">
	.st0{fill:#FFFFFF;}
</style>
<g id="Layer_1">
</g>
<g id="icons">
	<path class="st0" d="M26.7,15.3c3,0,5.5-2.5,5.5-5.5c0-3-2.5-5.5-5.5-5.5c-0.4,0-0.8,0.1-1.2,0.1C24.7,1.9,22.3,0,19.5,0
		c-3.4,0-6.2,2.8-6.2,6.2c0,0.1,0,0.2,0,0.4c-0.4-0.1-0.8-0.2-1.2-0.2c-2.4,0-4.4,2-4.4,4.4s2,4.4,4.4,4.4H26.7z"/>
	<polygon class="st0" points="18.9,17.8 23.6,17.8 21.2,22.3 25,22.3 18.5,30 20,25.3 15.6,25.3 	"/>
</g>
</svg>
