<?xml version="1.0" encoding="utf-8"?>
<!-- Generator: Adobe Illustrator 22.1.0, SVG Export Plug-In . SVG Version: 6.00 Build 0)  -->
<svg version="1.1" xmlns="http://www.w3.org/2000/svg" xmlns:xlink="http://www.w3.org/1999/xlink" x="0px" y="0px"
	 viewBox="0 0 40 30" style="enable-background:new 0 0 40 30;" xml:space="preserve">
<style type="text/css">
	.st0{fill:#FFFFFF;}
</style>
<g id="Layer_1">
</g>
<g id="icons">
	<path class="st0" d="M27.8,17.8c3.5,0,6.4-2.9,6.4-6.4c0-3.5-2.9-6.4-6.4-6.4c-0.5,0-1,0.1-1.4,0.2c-0.9-3-3.6-5.1-6.9-5.1
		c-4,0-7.2,3.2-7.2,7.2c0,0.1,0,0.3,0,0.4c-0.4-0.1-0.9-0.2-1.4-0.2c-2.9,0-5.2,2.3-5.2,5.2s2.3,5.2,5.2,5.2H27.8z"/>
	<path class="st0" d="M23.8,24.6h-2l1.4-1.4c0.3-0.3,0.3-0.8,0-1.1c-0.3-0.3-0.8-0.3-1.1,0l-1.4,1.4v-2c0-0.4-0.3-0.8-0.8-0.8
		c-0.4,0-0.8,0.3-0.8,0.8v2l-1.4-1.4c-0.3-0.3-0.8-0.3-1.1,0c-0.3,0.3-0.3,0.8,0,1.1l1.4,1.4h-2c-0.4,0-0.8,0.3-0.8,0.8
		c0,0.4,0.3,0.8,0.8,0.8h2l-1.4,1.4c-0.3,0.3-0.3,0.8,0,1.1c0.3,0.3,0.8,0.3,1.1,0l1.4-1.4v2c0,0.4,0.3,0.8,0.8,0.8
		c0.4,0,0.8-0.3,0.8-0.8v-2l1.4,1.4c0.3,0.3,0.8,0.3,1.1,0c0.3-0.3,0.3-0.8,0-1.1l-1.4-1.4h2c0.4,0,0.8-0.3,0.8-0.8
		C24.6,25,24.3,24.6,23.8,24.6z"/>
</g>
</svg>
