<?xml version="1.0" encoding="utf-8"?>
<!-- Generator: Adobe Illustrator 22.1.0, SVG Export Plug-In . SVG Version: 6.00 Build 0)  -->
<svg version="1.1" xmlns="http://www.w3.org/2000/svg" xmlns:xlink="http://www.w3.org/1999/xlink" x="0px" y="0px"
	 viewBox="0 0 40 30" style="enable-background:new 0 0 40 30;" xml:space="preserve">
<style type="text/css">
	.st0{fill:#FFFFFF;}
</style>
<g id="Layer_1">
</g>
<g id="icons">
	<path class="st0" d="M27.4,13.9c0.6,4.1-2.2,7.8-6.3,8.4c-4.1,0.6-7.8-2.2-8.4-6.3C12,12,14.9,8.2,18.9,7.6
		C23,7,26.8,9.9,27.4,13.9z"/>
	<g>
		<g>
			<path class="st0" d="M19.9,0c-0.6,0-1.2,0.5-1.2,1.2l0,3.1c0,0.6,0.5,1.2,1.2,1.2c0.6,0,1.2-0.5,1.2-1.2l0-3.1
				C21.1,0.5,20.6,0,19.9,0z"/>
			<path class="st0" d="M20.1,30c0.6,0,1.2-0.5,1.2-1.2l0-3.1c0-0.6-0.5-1.2-1.2-1.2c-0.6,0-1.2,0.5-1.2,1.2l0,3.1
				C18.9,29.5,19.4,30,20.1,30z"/>
		</g>
		<g>
			<path class="st0" d="M5,15.1c0,0.6,0.5,1.2,1.2,1.2l3.1,0c0.6,0,1.2-0.5,1.2-1.2c0-0.6-0.5-1.2-1.2-1.2l-3.1,0
				C5.5,13.9,5,14.4,5,15.1z"/>
			<path class="st0" d="M35,14.9c0-0.6-0.5-1.2-1.2-1.2l-3.1,0c-0.6,0-1.2,0.5-1.2,1.2c0,0.6,0.5,1.2,1.2,1.2l3.1,0
				C34.5,16.1,35,15.6,35,14.9z"/>
		</g>
	</g>
	<g>
		<g>
			<path class="st0" d="M9.4,4.4c-0.5,0.5-0.4,1.2,0,1.6l2.2,2.2c0.5,0.5,1.2,0.4,1.6,0c0.5-0.5,0.4-1.2,0-1.6L11,4.4
				C10.5,4,9.8,4,9.4,4.4z"/>
			<path class="st0" d="M30.6,25.6c0.5-0.5,0.4-1.2,0-1.6l-2.2-2.2c-0.5-0.5-1.2-0.4-1.6,0c-0.5,0.5-0.4,1.2,0,1.6l2.2,2.2
				C29.5,26,30.2,26,30.6,25.6z"/>
		</g>
		<g>
			<path class="st0" d="M9.4,25.6c0.5,0.5,1.2,0.5,1.6,0l2.2-2.2c0.5-0.5,0.4-1.2,0-1.6c-0.5-0.5-1.2-0.4-1.6,0L9.4,24
				C9,24.5,9,25.2,9.4,25.6z"/>
			<path class="st0" d="M30.6,4.4c-0.5-0.5-1.2-0.5-1.6,0l-2.2,2.2c-0.5,0.5-0.4,1.2,0,1.6c0.5,0.5,1.2,0.4,1.6,0L30.6,6
				C31,5.5,31,4.8,30.6,4.4z"/>
		</g>
	</g>
</g>
</svg>
