<?xml version="1.0" encoding="utf-8"?>
<!-- Generator: Adobe Illustrator 22.1.0, SVG Export Plug-In . SVG Version: 6.00 Build 0)  -->
<svg version="1.1" xmlns="http://www.w3.org/2000/svg" xmlns:xlink="http://www.w3.org/1999/xlink" x="0px" y="0px"
	 viewBox="0 0 40 30" style="enable-background:new 0 0 40 30;" xml:space="preserve">
<style type="text/css">
	.st0{fill:#FFFFFF;}
</style>
<g id="Layer_1">
</g>
<g id="icons">
	<path class="st0" d="M28.1,18.4c3.7,0,6.6-3,6.6-6.6c0-3.7-3-6.6-6.6-6.6c-0.5,0-1,0.1-1.5,0.2C25.6,2.2,22.8,0,19.5,0
		C15.4,0,12,3.3,12,7.4c0,0.2,0,0.3,0,0.5c-0.4-0.1-0.9-0.2-1.4-0.2c-2.9,0-5.3,2.4-5.3,5.3c0,2.9,2.4,5.3,5.3,5.3H28.1z"/>
	<path class="st0" d="M10.6,25.4c-1.2,0.9-0.9,2.9,0.3,3.9c1.2,1,3.1,1,3.9-0.3c0.9-1.6,2.4-7,2.4-7S12.1,24.2,10.6,25.4z"/>
	<path class="st0" d="M21.4,25.4c-1.2,0.9-0.9,2.9,0.3,3.9c1.2,1,3.1,1,3.9-0.3c0.9-1.6,2.4-7,2.4-7S22.8,24.2,21.4,25.4z"/>
</g>
</svg>
