<?xml version="1.0" encoding="utf-8"?>
<!-- Generator: Adobe Illustrator 22.1.0, SVG Export Plug-In . SVG Version: 6.00 Build 0)  -->
<svg version="1.1" xmlns="http://www.w3.org/2000/svg" xmlns:xlink="http://www.w3.org/1999/xlink" x="0px" y="0px"
	 viewBox="0 0 40 30" style="enable-background:new 0 0 40 30;" xml:space="preserve">
<style type="text/css">
	.st0{fill:#FFFFFF;}
</style>
<g id="Layer_1">
</g>
<g id="icons">
	<path class="st0" d="M28.1,18.3c3.7,0,6.6-3,6.6-6.6c0-3.7-3-6.6-6.6-6.6c-0.5,0-1,0.1-1.5,0.2C25.6,2.2,22.8,0,19.5,0
		C15.4,0,12,3.3,12,7.4c0,0.2,0,0.3,0,0.4c-0.4-0.1-0.9-0.2-1.4-0.2c-2.9,0-5.3,2.4-5.3,5.3s2.4,5.3,5.3,5.3H28.1z"/>
	<g>
		<path class="st0" d="M23.1,25.4c-1.2,0.9-0.9,2.9,0.3,3.9c1.2,1,3.1,1,3.9-0.3c0.9-1.6,2.4-7,2.4-7S24.6,24.2,23.1,25.4z"/>
		<path class="st0" d="M17.5,25.3h-1.7l1.2-1.2c0.3-0.3,0.3-0.7,0-0.9c-0.3-0.3-0.7-0.3-0.9,0l-1.2,1.2v-1.7c0-0.4-0.3-0.7-0.7-0.7
			c-0.4,0-0.7,0.3-0.7,0.7v1.7l-1.2-1.2c-0.3-0.3-0.7-0.3-0.9,0c-0.3,0.3-0.3,0.7,0,0.9l1.2,1.2h-1.7c-0.4,0-0.7,0.3-0.7,0.7
			c0,0.4,0.3,0.7,0.7,0.7h1.7l-1.2,1.2c-0.3,0.3-0.3,0.7,0,0.9c0.3,0.3,0.7,0.3,0.9,0l1.2-1.2v1.7c0,0.4,0.3,0.7,0.7,0.7
			c0.4,0,0.7-0.3,0.7-0.7v-1.7l1.2,1.2c0.3,0.3,0.7,0.3,0.9,0c0.3-0.3,0.3-0.7,0-0.9l-1.2-1.2h1.7c0.4,0,0.7-0.3,0.7-0.7
			C18.2,25.6,17.9,25.3,17.5,25.3z"/>
	</g>
</g>
</svg>
