<?xml version="1.0" encoding="utf-8"?>
<!-- Generator: Adobe Illustrator 22.1.0, SVG Export Plug-In . SVG Version: 6.00 Build 0)  -->
<svg version="1.1" xmlns="http://www.w3.org/2000/svg" xmlns:xlink="http://www.w3.org/1999/xlink" x="0px" y="0px"
	 viewBox="0 0 40 30" style="enable-background:new 0 0 40 30;" xml:space="preserve">
<style type="text/css">
	.st0{fill:#FFFFFF;}
</style>
<g id="Layer_1">
</g>
<g id="icons">
	<g id="cloud">
		<path class="st0" d="M29.6,21.9c4.4,0,7.9-3.5,7.9-7.9c0-4.4-3.5-7.9-7.9-7.9c-0.6,0-1.2,0.1-1.8,0.2C26.7,2.7,23.4,0,19.3,0
			c-4.9,0-8.9,4-8.9,8.9c0,0.2,0,0.4,0,0.5C10,9.3,9.4,9.2,8.8,9.2c-3.5,0-6.4,2.9-6.4,6.4s2.9,6.4,6.4,6.4H29.6z"/>
	</g>
	<path class="st0" d="M33.4,26.3H6c-0.6,0-1-0.5-1-1c0-0.6,0.5-1,1-1h27.4c0.6,0,1,0.5,1,1C34.4,25.9,33.9,26.3,33.4,26.3z"/>
	<path class="st0" d="M29.8,30H9.6c-0.5,0-0.9-0.4-0.9-0.9c0-0.5,0.4-0.9,0.9-0.9h20.2c0.5,0,0.9,0.4,0.9,0.9
		C30.7,29.6,30.3,30,29.8,30z"/>
</g>
</svg>
